<mxfile host="65bd71144e">
    <diagram id="1_umRqgCWuOfFAgZmLR7" name="Cloud diagram">
        <mxGraphModel dx="1019" dy="491" grid="1" gridSize="10" guides="1" tooltips="1" connect="1" arrows="1" fold="1" page="1" pageScale="1" pageWidth="827" pageHeight="1169" math="0" shadow="0">
            <root>
                <mxCell id="0"/>
                <mxCell id="1" parent="0"/>
                <mxCell id="2" value="" style="shape=actor;whiteSpace=wrap;html=1;" parent="1" vertex="1">
                    <mxGeometry x="330" y="240" width="134" height="150" as="geometry"/>
                </mxCell>
                <mxCell id="3" value="Famazon/Platform" style="ellipse;shape=cloud;whiteSpace=wrap;html=1;" parent="1" vertex="1">
                    <mxGeometry x="210" y="100" width="120" height="80" as="geometry"/>
                </mxCell>
                <mxCell id="6" value="Product" style="ellipse;shape=cloud;whiteSpace=wrap;html=1;" parent="1" vertex="1">
                    <mxGeometry x="350" y="80" width="120" height="80" as="geometry"/>
                </mxCell>
                <mxCell id="7" value="SupplierCompany" style="ellipse;shape=cloud;whiteSpace=wrap;html=1;" parent="1" vertex="1">
                    <mxGeometry x="490" y="110" width="120" height="80" as="geometry"/>
                </mxCell>
                <mxCell id="8" value="ShippingCompany" style="ellipse;shape=cloud;whiteSpace=wrap;html=1;" parent="1" vertex="1">
                    <mxGeometry x="560" y="220" width="120" height="80" as="geometry"/>
                </mxCell>
                <mxCell id="9" value="Customer" style="ellipse;shape=cloud;whiteSpace=wrap;html=1;" parent="1" vertex="1">
                    <mxGeometry x="130" y="200" width="120" height="80" as="geometry"/>
                </mxCell>
            </root>
        </mxGraphModel>
    </diagram>
</mxfile>